<?xml version="1.0" encoding="UTF-8" standalone="no"?>
<!-- Generator: Adobe Illustrator 23.0.2, SVG Export Plug-In . SVG Version: 6.00 Build 0)  -->

<svg
   version="1.1"
   id="Layer_1"
   x="0px"
   y="0px"
   viewBox="0 0 500 45.910493"
   xml:space="preserve"
   sodipodi:docname="McLaren wordmark.svg"
   width="500"
   height="45.910492"
   inkscape:version="1.4 (86a8ad7, 2024-10-11)"
   xmlns:inkscape="http://www.inkscape.org/namespaces/inkscape"
   xmlns:sodipodi="http://sodipodi.sourceforge.net/DTD/sodipodi-0.dtd"
   xmlns="http://www.w3.org/2000/svg"
   xmlns:svg="http://www.w3.org/2000/svg"><defs
   id="defs2" /><sodipodi:namedview
   id="namedview2"
   pagecolor="#ffffff"
   bordercolor="#000000"
   borderopacity="0.25"
   inkscape:showpageshadow="2"
   inkscape:pageopacity="0.0"
   inkscape:pagecheckerboard="0"
   inkscape:deskcolor="#d1d1d1"
   inkscape:zoom="6.0470666"
   inkscape:cx="352.2369"
   inkscape:cy="13.973717"
   inkscape:window-width="1920"
   inkscape:window-height="1001"
   inkscape:window-x="-9"
   inkscape:window-y="-9"
   inkscape:window-maximized="1"
   inkscape:current-layer="Layer_1" />
<path
   d="m 105.70987,45.717591 h 24.11265 V 0 H 115.74073 C 109.76079,0 105.90277,2.5077159 101.85184,5.7870368 97.415115,9.6450613 81.404313,23.53395 81.404313,23.53395 V 0 H 67.129622 C 59.027771,0 54.976845,2.8935184 50.540117,6.3657405 47.260796,8.6805552 0,45.717591 0,45.717591 H 28.742278 L 57.098758,22.376542 V 45.717591 H 80.246905 L 105.70987,22.569444 Z m 52.46913,0 h 38.96605 V 33.950616 h -31.8287 c -2.89352,0 -6.17284,-1.736111 -6.17284,-7.523148 v -0.771605 c 0,-5.208333 2.70061,-7.330246 5.97993,-7.330246 h 32.02161 V 6.3657405 H 157.4074 c -16.20371,0 -22.76235,7.1373455 -22.76235,17.9398145 v 3.665123 c 0,12.731481 7.13735,17.746913 23.53395,17.746913 z m 87.19136,0 V 33.757715 H 226.65894 V 0 h -24.11266 v 45.910492 z m 46.87499,-15.239197 c 0,2.314815 -0.9645,3.665123 -3.6651,3.665123 h -13.11728 c -2.31482,0 -3.66511,-0.771605 -3.66511,-2.314815 0,-1.736111 0.96451,-2.893518 3.66511,-2.893518 h 16.7824 v 1.54321 z m 24.11266,0 v -8.680555 c 0,-9.837963 -6.55862,-15.4320985 -20.44755,-15.4320985 H 252.7006 V 17.746913 h 34.72222 c 3.47223,0 4.82253,1.157407 4.82253,3.858024 v 0.385803 h -27.58487 c -11.57408,0 -15.62502,4.822531 -15.62502,11.188271 v 1.157407 c -0.19292,2.507716 0.77159,5.015432 2.7006,6.751543 3.47222,3.279321 9.83798,4.243827 18.71142,4.243827 h 23.91973 c 15.43218,0.385803 21.9908,-3.086419 21.9908,-14.853394 z m 29.32098,-12.152777 h 15.0463 V 6.3657405 h -30.8642 c -5.01545,0 -8.10185,2.7006171 -8.10185,7.1373455 v 32.407406 h 24.30558 V 18.325617 Z m 62.50002,2.121913 c 0,1.736111 -0.77158,2.700617 -3.47222,2.700617 H 387.5386 v -1.54321 c 0,-2.314814 0.96451,-3.665123 3.6651,-3.665123 h 13.11729 c 2.31479,0 3.85802,0.578704 3.85802,2.507716 z m 22.76231,-0.964506 v -1.54321 c 0,-6.558642 -3.66511,-11.5740735 -20.64043,-11.5740735 h -24.88424 c -15.62502,0 -22.18364,5.4012345 -22.18364,16.9753075 v 6.751543 c 0,9.837963 6.55862,15.625 20.44755,15.625 h 44.17436 V 34.143517 h -35.87963 c -3.47222,0 -4.82253,-0.964506 -4.82253,-3.665123 v -0.385803 h 27.77776 c 10.03088,0 16.0108,-3.27932 16.0108,-10.609567 z m 69.05867,26.234567 v -21.99074 c 0,-13.695987 -6.55862,-17.3611105 -26.23458,-17.3611105 H 435.37808 V 45.910492 h 24.30558 V 19.097221 h 6.55862 c 7.33025,0 9.64506,4.243827 9.64506,8.680556 v 17.939814 z"
   id="path1"
   style="stroke-width:1.92901" />

</svg>
